<svg width="43" height="42" viewBox="0 0 43 42" fill="none" xmlns="http://www.w3.org/2000/svg">
<path d="M42.1976 21.4661C42.1976 19.7395 42.0547 18.4795 41.7453 17.1729H21.6262V24.9661H33.4356C33.1976 26.9028 31.9119 29.8195 29.0547 31.7794L29.0147 32.0403L35.3759 36.8697L35.8167 36.9128C39.8642 33.2495 42.1976 27.8594 42.1976 21.4661Z" fill="#4285F4"/>
<path d="M21.6235 42.0002C27.4092 42.0002 32.2662 40.1334 35.8139 36.9134L29.052 31.7799C27.2426 33.0166 24.8139 33.88 21.6235 33.88C15.9569 33.88 11.1475 30.2167 9.43303 25.1533L9.18173 25.1742L2.56721 30.191L2.48071 30.4266C6.00447 37.2866 13.2426 42.0002 21.6235 42.0002Z" fill="#34A853"/>
<path d="M9.43648 25.153C8.98411 23.8463 8.7223 22.4462 8.7223 20.9996C8.7223 19.5528 8.98411 18.1529 9.41268 16.8463L9.4007 16.568L2.70327 11.4707L2.48414 11.5728C1.03183 14.4196 0.198486 17.6163 0.198486 20.9996C0.198486 24.3829 1.03183 27.5795 2.48414 30.4262L9.43648 25.153Z" fill="#FBBC05"/>
<path d="M21.6237 8.11994C25.6474 8.11994 28.3616 9.82327 29.9093 11.2467L35.9569 5.46C32.2428 2.07668 27.4093 0 21.6237 0C13.2426 0 6.00449 4.7133 2.48071 11.5732L9.40927 16.8466C11.1475 11.7833 15.957 8.11994 21.6237 8.11994Z" fill="#EB4335"/>
</svg>
