<svg width="20" height="20" viewBox="0 0 20 20" fill="none" xmlns="http://www.w3.org/2000/svg">
<path d="M19.0677 3.40247L16.4828 0.890701C16.3004 0.712572 16.0837 0.571238 15.845 0.47482C15.6063 0.378401 15.3504 0.328797 15.092 0.328857C14.5653 0.328857 14.0702 0.529516 13.6988 0.890701L10.9173 3.59605C10.7342 3.7734 10.5889 3.98419 10.4897 4.21633C10.3906 4.44846 10.3396 4.69736 10.3397 4.94872C10.3397 5.46099 10.546 5.94257 10.9173 6.30375L12.9513 8.28201C12.4752 9.30268 11.8132 10.2312 10.9974 11.0228C10.1836 11.8182 9.22906 12.4643 8.17949 12.9302L6.14554 10.9519C5.9632 10.7738 5.74647 10.6325 5.5078 10.5361C5.26913 10.4396 5.01322 10.39 4.75478 10.3901C4.22809 10.3901 3.73295 10.5908 3.3616 10.9519L0.577663 13.6549C0.394294 13.8326 0.248856 14.0438 0.149719 14.2763C0.0505807 14.5089 -0.00030077 14.7582 1.33745e-06 15.01C1.33745e-06 15.5222 0.206309 16.0038 0.577663 16.365L3.15772 18.8744C3.74995 19.4528 4.56789 19.7809 5.40769 19.7809C5.58487 19.7809 5.75477 19.7668 5.92224 19.7384C9.19404 19.2143 12.4391 17.5217 15.058 14.9769C17.6745 12.4345 19.4123 9.28058 19.9584 6.08893C20.1235 5.11397 19.791 4.11068 19.0677 3.40247Z" fill="white"/>
</svg>
