<svg width="40" height="40" viewBox="0 0 40 40" fill="none" xmlns="http://www.w3.org/2000/svg">
<path d="M35.1335 11.6667C34.8455 11.1677 34.4331 10.7519 33.9366 10.4598C33.44 10.1677 32.8762 10.0093 32.3002 10H10.9668L10.0002 6.23333C9.9025 5.86973 9.6846 5.54991 9.38196 5.32595C9.07932 5.102 8.70977 4.98711 8.3335 5H5.00016C4.55814 5 4.13421 5.1756 3.82165 5.48816C3.50909 5.80072 3.3335 6.22464 3.3335 6.66667C3.3335 7.1087 3.50909 7.53262 3.82165 7.84518C4.13421 8.15774 4.55814 8.33333 5.00016 8.33333H7.06683L11.6668 25.4333C11.7645 25.7969 11.9824 26.1168 12.285 26.3407C12.5877 26.5647 12.9572 26.6796 13.3335 26.6667H28.3335C28.6413 26.6657 28.9428 26.5796 29.2046 26.4178C29.4664 26.256 29.6783 26.0249 29.8168 25.75L35.2835 14.8167C35.5204 14.32 35.6307 13.7725 35.6046 13.2228C35.5784 12.6732 35.4166 12.1385 35.1335 11.6667ZM27.3002 23.3333H14.6002L11.8835 13.3333H32.3002L27.3002 23.3333Z" fill="white"/>
<path d="M12.5 35C13.8807 35 15 33.8807 15 32.5C15 31.1193 13.8807 30 12.5 30C11.1193 30 10 31.1193 10 32.5C10 33.8807 11.1193 35 12.5 35Z" fill="white"/>
<path d="M29.167 35C30.5477 35 31.667 33.8807 31.667 32.5C31.667 31.1193 30.5477 30 29.167 30C27.7863 30 26.667 31.1193 26.667 32.5C26.667 33.8807 27.7863 35 29.167 35Z" fill="white"/>
</svg>
